<?xml version="1.0" standalone="no"?>
<!DOCTYPE svg PUBLIC "-//W3C//DTD SVG 20010904//EN"
 "http://www.w3.org/TR/2001/REC-SVG-20010904/DTD/svg10.dtd">
<svg version="1.0" xmlns="http://www.w3.org/2000/svg"
 width="564.000000pt" height="564.000000pt" viewBox="0 0 564.000000 564.000000"
 preserveAspectRatio="xMidYMid meet">
<metadata>
Created by potrace 1.14, written by Peter Selinger 2001-2017
</metadata>
<g transform="translate(0.000000,564.000000) scale(0.100000,-0.100000)"
fill="#000000" stroke="none">
<path d="M0 4943 c1 -624 2 -696 16 -678 57 76 237 285 314 364 86 90 135 122
255 167 63 24 84 27 205 28 l135 0 165 -52 c91 -29 185 -59 210 -66 25 -8 77
-23 115 -35 39 -12 90 -28 115 -35 25 -8 77 -24 115 -36 39 -12 90 -28 115
-35 25 -7 59 -18 75 -24 17 -6 91 -29 165 -52 74 -22 205 -62 290 -89 85 -27
209 -65 275 -85 66 -21 146 -46 178 -56 71 -24 83 -24 154 0 32 10 92 28 133
41 41 12 116 36 165 52 140 45 204 64 285 88 41 12 93 27 115 34 44 15 106 34
290 91 66 20 167 51 225 70 58 18 128 39 155 48 153 46 328 101 385 120 54 18
88 22 195 21 72 0 146 -5 165 -11 139 -46 203 -84 290 -173 118 -121 125 -129
337 -389 1 -2 3 309 3 692 l0 697 -2820 0 -2820 0 0 -697z"/>
<path d="M925 3334 c-11 -1 -83 -10 -160 -19 -227 -26 -504 -80 -567 -112 -49
-24 -50 -103 -2 -125 19 -9 37 -9 77 1 29 7 79 18 112 26 133 31 290 56 483
76 183 19 238 21 555 15 194 -3 377 -9 408 -12 50 -5 59 -3 78 17 27 30 27 70
-1 97 -37 34 -154 42 -578 41 -212 -1 -394 -3 -405 -5z"/>
<path d="M3830 3329 c-62 -7 -79 -13 -97 -34 -29 -33 -29 -57 0 -91 l23 -27
160 13 c214 17 731 9 914 -13 171 -22 346 -52 478 -84 57 -14 114 -22 128 -19
15 4 31 20 41 41 16 34 16 36 -3 62 -25 33 -92 55 -294 94 -98 19 -216 35
-435 59 -108 12 -809 11 -915 -1z"/>
<path d="M1270 2575 c-8 -2 -49 -8 -90 -15 -293 -45 -463 -185 -546 -451 -23
-73 -27 -102 -27 -224 -1 -100 4 -157 15 -198 9 -33 19 -61 22 -64 2 -3 31 5
63 17 183 71 374 136 498 170 44 12 98 28 120 35 127 43 550 134 741 160 60 8
141 19 179 25 462 65 1133 45 1565 -46 423 -90 758 -204 1089 -371 47 -24 86
-41 88 -39 2 2 13 36 25 77 17 60 21 103 22 224 1 131 -2 160 -22 225 -69 219
-194 354 -397 427 -163 58 -439 62 -695 8 -177 -37 -480 -85 -715 -112 -200
-23 -564 -23 -770 1 -216 24 -565 79 -715 111 -126 27 -402 52 -450 40z"/>
</g>
</svg>
